PathFileType	4	(X/Y/Z)	Patient4_TMGait_0pt7_02_right_11.trc.trc
DataRate	CameraRate	NumFrames	NumMarkers	Units	OrigDataRate	OrigDataStartFrame	OrigNumFrames
86.419753086420	86.419753086420	6	33	mm	86.419753086420	1	       141
Frame#	Time	Sacral			L.Shoulder			Chest			R.Shoulder			Neck			R.ASIS			L.ASIS			R.Thigh.Superior			R.Thigh.Lateral			R.Thigh.Inferior			R.Patella			L.Thigh.Superior			L.Thigh.Lateral			L.Thigh.Inferior			L.Patella			L.Shank.Superior			L.Shank.Lateral			L.Shank.Inferior			R.Shank.Superior			R.Shank.Lateral			R.Shank.Inferior			R.Heel			R.Midfoot.Superior			R.Midfoot.Lateral			R.Toe			L.Heel			L.Midfoot.Lateral			L.Midfoot.Superior			L.Toe			L.Elbow			L.Wrist			R.Elbow			R.Wrist			
		X1	Y1	Z1	X2	Y2	Z2	X3	Y3	Z3	X4	Y4	Z4	X5	Y5	Z5	X6	Y6	Z6	X7	Y7	Z7	X8	Y8	Z8	X9	Y9	Z9	X10	Y10	Z10	X11	Y11	Z11	X12	Y12	Z12	X13	Y13	Z13	X14	Y14	Z14	X15	Y15	Z15	X16	Y16	Z16	X17	Y17	Z17	X18	Y18	Z18	X19	Y19	Z19	X20	Y20	Z20	X21	Y21	Z21	X22	Y22	Z22	X23	Y23	Z23	X24	Y24	Z24	X25	Y25	Z25	X26	Y26	Z26	X27	Y27	Z27	X28	Y28	Z28	X29	Y29	Z29	X30	Y30	Z30	X31	Y31	Z31	X32	Y32	Z32	X33	Y33	Z33	

1	11.660000000000	772.159790765894	1016.637271915107	435.058535945866	970.974678153222	1433.856620607231	249.947173781294	1069.700538269978	1360.801155790235	412.931229133241	990.265404531587	1445.881398629316	583.979084481739	977.280477460045	1497.360876699609	402.433993849901	993.321340150141	948.551430769162	558.823695527759	989.773804409507	963.137967165532	284.797641572324	1077.325597721704	783.203615868092	537.764944231760	1035.960406912818	662.423894321624	613.076120293957	1132.854418872316	624.762248077475	541.210822084501	1151.411205294707	509.859980752599	564.989887705699	1034.116016668606	752.266995930260	315.703696035705	940.408502995570	639.579076496585	259.694104110589	1019.985725048617	559.542087749048	325.440140822851	1017.856449274798	490.843210354379	337.334917219067	991.281115496633	419.856879854993	329.582900246769	902.739166609241	304.688091095644	279.781327695440	951.654708430848	194.947901954783	354.539635953798	1072.389835816486	436.294262883050	566.791909600053	944.769286911219	402.376352000645	617.479259723795	930.479206190362	293.172347103723	568.587796295804	730.510097287074	241.797882339660	526.409406893257	893.743050013433	172.606090539083	578.037650963800	780.465493386133	175.822692822449	601.302837784545	947.883045588471	53.517826016092	601.343446057364	820.652544150073	39.598544550328	396.547077155472	897.060653116623	36.136655031824	317.885742258260	980.092332004029	96.296213444019	346.515830206612	1109.071178763836	41.052586272432	322.130804738788	938.435347570798	1088.244796642238	122.368980164309	1095.553747252159	877.779254268505	122.313295202077	991.196560687558	1102.436554896333	714.604186772368	1220.474084078737	982.686459853885	699.880969898112	
2	11.671571428571	770.301628877482	1016.990652768815	434.225063955029	971.545454935620	1434.234708691659	249.729736505120	1068.770656625948	1360.808186950934	413.399011697744	988.236151585160	1445.951133008119	583.837968030797	976.598413811967	1497.557574593714	402.211097100826	991.050186370177	949.141739847126	558.823869198993	988.449747107598	963.434320668200	284.597426709996	1077.245269813299	786.863810625223	537.816491131829	1038.665244430991	665.440933431271	613.145075939178	1135.693510070693	629.466384661757	540.772591527438	1157.132216037691	515.763498915377	564.761182651640	1029.636967801757	751.408657757539	316.623277081154	934.867199015329	639.817911516027	259.251387631995	1012.739868538244	558.779512753492	325.307525928450	1009.625802028782	490.379676059756	337.080598238180	983.232622508091	419.774609944721	329.201289316425	894.472301082810	304.786792898612	279.412109077819	943.201493124159	195.004253717827	354.273259824067	1081.124052547679	439.793914155792	566.969226596032	955.852895315637	400.115526258971	618.271694455597	946.483282379279	290.519837289459	569.523180238935	749.471765924113	229.925605200444	528.496489098762	915.537910236508	168.440066019980	579.222719725358	802.664532023697	166.408533257579	602.975110174607	975.096731494566	52.316588827726	602.190468291585	812.055689183156	39.658789793375	396.539977611194	888.472558097327	36.111343461169	317.887147298279	971.494306561065	96.285304072908	346.416265369834	1100.491605195329	41.010843276041	322.116167314430	945.757684312827	1089.256576603223	120.299106029415	1114.317834854953	889.723612433742	121.502572436132	980.788399097009	1102.605164187497	714.913599999977	1196.311190921387	963.511851797286	704.424580447520	
3	11.683142857143	768.472159548233	1017.304807781395	433.435625782269	972.108128089676	1434.565308753072	249.536812712371	1067.852796396920	1360.781044667674	413.879549721131	986.232857496140	1445.984335631172	583.719572591761	975.924479406611	1497.715942080936	402.004788355517	988.824972332859	949.696294867517	558.848407182686	987.115512595190	963.692665359657	284.433041399786	1077.117468440578	790.397130919326	537.846425617015	1041.261938361411	668.350176718298	613.191737193484	1138.368263024003	633.993622128840	540.291467850588	1162.617204225021	521.520924553285	564.513736714931	1025.235862465422	750.546993441437	317.496017660167	929.410050081495	640.034606080148	258.821897487988	1005.634243479403	558.016955160076	325.159031958655	1001.559523212439	489.910681516164	336.816157042756	975.333952145228	419.676634205442	328.822821742330	886.334664610068	304.879236828372	279.050338983631	934.863086146005	195.047402071068	354.013183186871	1089.650264318585	443.183714957735	567.161570320993	966.784885203043	397.766002184979	619.098501749233	962.364008050550	287.803816341903	570.529536359196	768.411669223144	217.966184057585	530.648156390957	937.236626881517	164.275648492428	580.537738808523	824.805785056674	157.003447495935	604.762784483898	1002.197751561139	51.200165964351	603.265180473554	803.567611610525	39.716533515262	396.526664739275	879.990523407560	36.084815655317	317.887275549716	963.003563496589	96.272846417211	346.320311600478	1092.018559061309	40.970397191999	322.101543214461	952.977487089958	1090.250128669577	118.292870919925	1132.753739895501	901.651240468481	120.797590964346	970.681427033143	1102.746947232587	715.219150229925	1172.135464785153	944.729094477973	708.820626505899	
4	11.694714285714	766.696647727269	1017.534349570159	432.740414254610	972.648902544526	1434.800079556183	249.409672851822	1066.957164601315	1360.674667108746	414.396713927524	984.289392926930	1445.933290160124	583.661656520882	975.268194611102	1497.790937537895	401.849691769580	986.685182257486	950.160245269727	558.925690470135	985.754020945337	963.862919039509	284.342876471944	1076.862422150901	793.630948790260	537.845519771800	1043.587483647570	671.006574518386	613.218329304647	1140.667316333718	638.122450216163	539.753573785994	1167.588443860568	526.966472496664	564.242105137944	1020.961488398861	749.668093696191	318.280436544562	924.077969581303	640.206022601298	258.421683974896	998.749211774385	557.245289428610	324.984751117836	993.753340651109	489.422486937320	336.536345447362	967.660839320256	419.541720199359	328.454016857594	878.378797128304	304.958857692629	278.703615548925	926.673437448428	195.061304189857	353.765516620184	1097.764295236264	446.349764086180	567.392953741955	977.498434666341	395.201754902962	620.014671314524	978.125859301971	284.971531589040	571.679611247909	787.555011624733	205.788402531446	532.941423729444	958.945816271118	160.155524781189	582.101136289251	847.084083870931	147.609294681034	606.780458574922	1029.296826674357	50.365893888658	604.757307592045	795.207083055506	39.770195068422	396.503237328309	871.630916373655	36.055580358923	317.885130653392	954.637708113430	96.256448739363	346.231581852128	1083.668465300055	40.932146837686	322.087691338968	960.034102473130	1091.221701212253	116.418172942027	1150.591184481760	913.706589213884	120.350167023055	961.058779166708	1102.832451659814	715.498181995112	1147.773338112464	926.736791174471	712.883673678075	
5	11.706285714286	764.995392910287	1017.643336089677	432.182018516069	973.153809917969	1434.900879283914	249.386997840652	1066.092936158292	1360.449806991674	414.972310799894	982.439518251588	1445.756643346727	583.699632477824	974.638781098475	1497.743897359997	401.781576581826	984.658535114938	950.480042509087	559.077873133895	984.357135410497	963.908309297719	284.357556139209	1076.405273469253	796.409200198875	537.810195757969	1045.488138621390	673.277475999225	613.232172756705	1142.403939750938	641.657115911869	539.158866775418	1171.809737058682	531.955924398405	563.945948464354	1016.850304964143	748.758308932196	318.941318501859	918.894845705738	640.313461953483	258.065782765391	992.135848183938	556.454949949208	324.779694010605	986.267328312390	488.900858502896	336.241756693648	960.255816900566	419.350245232196	328.103870026586	870.629748628879	305.019326758915	278.379551655368	918.637937756124	195.031675879651	353.538095215146	1105.298962240089	449.198247844763	567.684414912041	987.964041737258	392.316983392688	621.073634423547	993.803165205808	281.994172474085	573.028670628476	807.154219343045	193.294439583570	535.439436705364	980.799666060979	156.142308940730	583.997193305470	869.723274675265	138.247683423545	609.117687357309	1056.530391374633	50.022808077191	606.798260776471	786.966059597745	39.818127093706	396.467005537148	863.383768954380	36.022109795291	317.880248946572	946.387124519548	96.233620059257	346.153291497737	1075.431465446014	40.896427493164	322.075267153195	966.890637200651	1092.172497500603	114.731895273448	1167.619268423212	926.042783806991	120.294909293898	952.032310900844	1102.832144288233	715.718531749693	1123.072913498366	909.885893008156	716.446056408671	
6	11.717857142857	763.384500167829	1017.608371313217	431.792009459168	973.608633481567	1434.843940503817	249.501953793616	1065.268835528212	1360.077443848039	415.623337667021	980.717271815992	1445.423703501130	583.863679701517	974.045355403520	1497.546610495330	401.834913099886	982.763046681763	950.608202259955	559.318522359337	982.931658403320	963.809876516261	284.495006021329	1075.683817261607	798.600679305835	537.744473968946	1046.829127610728	675.049980508352	613.247573295930	1143.430684595159	644.439168417102	538.525499903438	1175.101687706679	536.370476523150	563.632503125128	1012.928854030495	747.807061152483	319.453941887569	913.872264033505	640.344567103976	257.767432622461	985.818929500019	555.638017370329	324.545426683105	979.129095418723	488.333299911260	335.939544416268	953.132768556588	419.086721147129	327.783543918808	863.092247133705	305.055327069409	278.085490816975	910.743275814299	194.947734339210	353.339825630876	1112.126345095376	451.659128362147	568.051886773293	998.174156634837	389.041247282134	622.319742955351	1009.428597459513	278.876535481415	574.604702224266	827.430487799033	180.455376419765	538.178304387856	1002.908332092275	152.320944745962	586.259857355993	892.915584159941	128.975802996305	611.821737885236	1083.998126575436	50.372867759458	609.436616023023	778.821084300947	39.858579640858	396.417304916750	855.224663032401	35.983248126076	317.872654995067	938.226988175537	96.202188114255	346.088002237833	1067.283237298866	40.863023748921	322.064813562583	973.525034654975	1093.107446461595	113.277618973933	1183.676167465198	938.789985058382	120.737868971667	943.638344310799	1102.721320104072	715.841959300424	1097.963181051617	894.474743939202	719.367780859980	
